<?xml version="1.0" encoding="UTF-8"?>
<svg width="24px" height="24px" viewBox="0 0 24 24" version="1.1" xmlns="http://www.w3.org/2000/svg" xmlns:xlink="http://www.w3.org/1999/xlink">
    <!-- Generator: Sketch 61.2 (89653) - https://sketch.com -->
    <title>Icon / Comment</title>
    <desc>Created with Sketch.</desc>
    <g id="Icon-/-Comment" stroke="none" stroke-width="1" fill="none" fill-rule="evenodd">
        <path d="M13,1.9999094 L12.5,1.9999094 C11.0252097,1.99615482 9.56783025,2.34133179 8.24914664,3.00740197 C5.03486902,4.6138352 3.00139217,7.90201054 3.00000007,11.499613 L3.0062929,11.8679605 C3.04688751,12.9714727 3.28248792,14.0593261 3.70123475,15.080505 L3.824,15.365 L2.0513167,20.6837722 L2.02191665,20.7900492 C1.85842188,21.5310679 2.57000419,22.1974245 3.31622777,21.9486833 L8.635,20.175 L8.9195053,20.2987652 C10.0541999,20.7640394 11.2714656,21.0032065 12.5026073,20.9999966 C16.0979895,20.9986078 19.3861648,18.965131 20.9945046,15.7470587 C21.6586682,14.4321698 22.0038452,12.9747903 22.0000874,11.4974143 L22.0000874,11 C21.7372586,6.21053133 18.0212905,2.41073547 13.3221164,2.01995293 L13,1.9999094 Z M12.4974143,3.99996817 L12.958,3.999 L12.944908,3.99845279 C16.7517828,4.20850011 19.7914999,7.24821715 20.0015472,11.055092 L20.0000285,11.5 C20.0030374,12.6649757 19.7314558,13.8116265 19.207402,14.8491466 C17.9357535,17.3935246 15.3398256,18.9989011 12.499613,19.0000001 C11.3350271,19.003034 10.1883822,18.7314602 9.15085336,18.207402 L9.02896213,18.1556526 C8.82145802,18.0833645 8.59456045,18.081054 8.38377223,18.1513167 L4.58,19.419 L5.8486833,15.6162278 C5.93299858,15.3632819 5.91280832,15.0871386 5.79259803,14.8491466 C5.26853978,13.8116178 4.996966,12.6649729 4.9999966,11.5026073 C5.00109895,8.66017444 6.60647541,6.06424654 9.14705875,4.7945046 C10.1883735,4.26854418 11.3350243,3.99696259 12.4974143,3.99996817 Z" id="Path" fill="#2E2E2E"></path>
    </g>
</svg>