<?xml version="1.0" encoding="UTF-8"?>
<svg width="24px" height="24px" viewBox="0 0 24 24" version="1.1" xmlns="http://www.w3.org/2000/svg" xmlns:xlink="http://www.w3.org/1999/xlink">
    <!-- Generator: Sketch 61.2 (89653) - https://sketch.com -->
    <title>Icon / Like</title>
    <desc>Created with Sketch.</desc>
    <g id="Icon-/-Like" stroke="none" stroke-width="1" fill="none" fill-rule="evenodd">
        <path d="M16.6633108,2.00449332 C15.0431544,2.07596138 13.504075,2.75117089 12.3527273,3.9030592 L12,4.255 L11.6471068,3.90289322 C9.10819479,1.3639813 4.99180522,1.36398133 2.45289328,3.90289328 C-0.0860186651,6.44180522 -0.0860186957,10.5581948 2.45289321,13.0971068 L11.2928932,21.9371068 C11.6834175,22.3276311 12.3165825,22.3276311 12.7071068,21.9371068 L21.5471068,13.0971068 C22.7665872,11.8781987 23.4518256,10.2244359 23.4518256,8.5 C23.4518256,6.77556415 22.7665872,5.12180133 21.5469408,3.90272727 C20.3281987,2.68341276 18.6744359,1.99817438 16.95,1.99817438 L16.6633108,2.00449332 Z M16.95,3.99817438 C18.1438402,3.99817438 19.2887529,4.47257018 20.1327273,5.3169408 C20.9774298,6.16124707 21.4518256,7.3061598 21.4518256,8.5 L21.4455313,8.738041 C21.3869285,9.84515773 20.9211384,10.8950179 20.1330592,11.6827273 L12,19.815 L3.86710678,11.6828932 C2.10924345,9.92502984 2.10924347,7.07497021 3.86710684,5.31710684 C5.62497021,3.55924347 8.47502984,3.55924345 10.2328932,5.31710679 L11.2928932,6.37710678 C11.6834175,6.76763107 12.3165825,6.76763107 12.7071068,6.37710678 L13.7671068,5.31710678 C14.6112471,4.47257018 15.7561598,3.99817438 16.95,3.99817438 Z" id="Path" fill="#2E2E2E"></path>
    </g>
</svg>