<?xml version="1.0" encoding="UTF-8"?>
<svg width="24px" height="24px" viewBox="0 0 24 24" version="1.1" xmlns="http://www.w3.org/2000/svg" xmlns:xlink="http://www.w3.org/1999/xlink">
    <!-- Generator: Sketch 61.2 (89653) - https://sketch.com -->
    <title>Icon / Share</title>
    <desc>Created with Sketch.</desc>
    <g id="Icon-/-Share" stroke="none" stroke-width="1" fill="none" fill-rule="evenodd">
        <path d="M18,1 C20.209139,1 22,2.790861 22,5 C22,7.209139 20.209139,9 18,9 C16.8888376,9 15.8834967,8.54692417 15.1586408,7.81543601 L9.85031287,10.912214 C9.94782938,11.2580744 10,11.6229447 10,12 C10,12.3766935 9.94792947,12.7412252 9.8505935,13.0867902 L15.1616199,16.1815608 C15.88625,15.4518359 16.890359,15 18,15 C20.209139,15 22,16.790861 22,19 C22,21.209139 20.209139,23 18,23 C15.790861,23 14,21.209139 14,19 C14,18.6214972 14.0525719,18.2552733 14.1508122,17.9082318 L8.84135921,14.815436 C8.11650333,15.5469242 7.11116243,16 6,16 C3.790861,16 2,14.209139 2,12 C2,9.790861 3.790861,8 6,8 C7.11116243,8 8.11650333,8.45307583 8.84135921,9.18456399 L14.1496871,6.08778599 C14.0521706,5.74192557 14,5.37705534 14,5 C14,2.790861 15.790861,1 18,1 Z M18,17 C17.3045793,17 16.6920565,17.3549287 16.3336983,17.8935195 C16.3201306,17.9272941 16.303106,17.9607045 16.2840082,17.9934777 L16.2194793,18.0908521 L16.2194793,18.0908521 L16.185885,18.1568505 C16.0666023,18.4130633 16,18.6987538 16,19 C16,20.1045695 16.8954305,21 18,21 C19.1045695,21 20,20.1045695 20,19 C20,17.8954305 19.1045695,17 18,17 Z M6,10 C4.8954305,10 4,10.8954305 4,12 C4,13.1045695 4.8954305,14 6,14 C6.72904906,14 7.36698889,13.609915 7.71648645,13.0270779 C7.71843561,13.0196571 7.72217223,13.0130769 7.72599178,13.0065223 L7.75014799,12.9687351 C7.90934691,12.6817347 8,12.3514539 8,12 C8,11.6456415 7.90784232,11.3128076 7.74618687,11.0241581 C7.73877496,11.0149495 7.73246247,11.0045661 7.72631298,10.9940285 L7.71886896,10.9769058 C7.36989309,10.3918632 6.73070882,10 6,10 Z M18,3 C16.8954305,3 16,3.8954305 16,5 C16,5.35145393 16.0906531,5.6817347 16.249852,5.96873506 L16.273687,6.0059715 L16.273687,6.0059715 L16.281131,6.0230942 C16.6301069,6.60813679 17.2692912,7 18,7 C19.1045695,7 20,6.1045695 20,5 C20,3.8954305 19.1045695,3 18,3 Z" id="Combined-Shape" fill="#2E2E2E"></path>
    </g>
</svg>