<?xml version="1.0" encoding="UTF-8"?>
<svg width="24px" height="24px" viewBox="0 0 24 24" version="1.1" xmlns="http://www.w3.org/2000/svg" xmlns:xlink="http://www.w3.org/1999/xlink">
    <!-- Generator: Sketch 61.2 (89653) - https://sketch.com -->
    <title>fa inbox</title>
    <desc>Created with Sketch.</desc>
    <defs>
        <path d="M16.6993168,2.9999993 C17.8869814,2.99918881 18.9633128,3.6990983 19.4438598,4.7839701 L22.9138598,12.5939701 L22.9222634,12.6127667 C22.9343688,12.6415633 22.9451649,12.6710459 22.9545771,12.70114 L22.9138598,12.5939701 C22.9355754,12.642846 22.9532782,12.6932559 22.966862,12.7447002 C22.974415,12.7723724 22.9806369,12.8009707 22.9856079,12.829996 C22.9878482,12.843989 22.9898713,12.8573865 22.9916219,12.870825 C22.9971599,12.9126888 23,12.9560127 23,13 L23,12.9999993 L23,17.9999993 C23,19.6568542 21.6568542,20.9999993 20,20.9999993 L4,20.9999993 C2.34314575,20.9999993 1,19.6568542 1,17.9999993 L1,12.9999993 L1.00672773,12.8833789 C1.00723893,12.8789776 1.0077787,12.8745851 1.00834686,12.8702015 L1,12.9999993 C1,12.9430883 1.00485776,12.8864348 1.01444559,12.8306406 C1.01936306,12.8009707 1.02558496,12.7723724 1.03300036,12.7442588 C1.03695871,12.7302305 1.04110526,12.7158427 1.04557531,12.7015478 C1.05483513,12.6710459 1.0656312,12.6415633 1.07773662,12.6127667 C1.08043066,12.6070079 1.08324989,12.6004754 1.08614021,12.5939701 L4.55593435,4.78443344 C5.03706177,3.69885476 6.11322515,2.99918895 7.3,2.9999993 L16.6993168,2.9999993 Z M3,17.9999995 C3,18.5522847 3.44771525,18.9999995 4,18.9999995 L20,18.9999995 C20.5522847,18.9999995 21,18.5522847 21,17.9999995 L21,13.9999993 L16.5351838,14 L14.8320503,16.5547002 C14.6465845,16.8328989 14.3343532,17 14,17 L14,17 L10,17 C9.66564681,17 9.35341548,16.8328989 9.16794971,16.5547002 L9.16794971,16.5547002 L7.46481624,14 L3,13.9999993 L3,17.9999995 Z M16.7,4.99999953 L7.29931679,4.99999953 C6.90342859,4.99972929 6.54465145,5.23303246 6.38431679,5.59499977 L3.538,11.9999993 L8,12 C8.29255904,12 8.56818103,12.1279368 8.75676287,12.3462924 L8.83205029,12.4452998 L10.5351838,15 L13.4648162,15 L15.1679497,12.4452998 C15.3534155,12.1671011 15.6656468,12 16,12 L16,12 L20.461,11.9999993 L17.6156832,5.59499977 C17.4553485,5.23303246 17.0965714,4.99972929 16.7,4.99999953 Z" id="path-1"></path>
    </defs>
    <g id="fa-inbox" stroke="none" stroke-width="1" fill="none" fill-rule="evenodd">
        <mask id="mask-2" fill="white">
            <use xlink:href="#path-1"></use>
        </mask>
        <use id="Combined-Shape" fill="#000000" fill-rule="nonzero" xlink:href="#path-1"></use>
        <g id="COLOR/-black" mask="url(#mask-2)" fill="#000000">
            <rect id="Rectangle" x="0" y="0" width="24" height="24"></rect>
        </g>
    </g>
</svg>